<svg width="318" height="62" viewBox="0 0 318 62" fill="none" xmlns="http://www.w3.org/2000/svg">
<rect x="0.5" y="0.5" width="43" height="43" rx="21.5" fill="white"/>
<path d="M18 16.5L18 27.5" stroke="black" stroke-width="2" stroke-linecap="round"/>
<path d="M26 16.5L26 27.5" stroke="black" stroke-width="2" stroke-linecap="round"/>
<rect x="0.5" y="0.5" width="43" height="43" rx="21.5" stroke="white"/>
<path d="M8.224 51.08C8.792 51.08 9.28 51.18 9.688 51.38C10.104 51.58 10.428 51.864 10.66 52.232C10.892 52.6 11.008 53.044 11.008 53.564C11.008 54.076 10.892 54.52 10.66 54.896C10.428 55.264 10.104 55.548 9.688 55.748C9.28 55.948 8.792 56.048 8.224 56.048H6.46V59H5.176V51.08H8.224ZM8.02 54.944C8.588 54.944 9.004 54.828 9.268 54.596C9.54 54.356 9.676 54.012 9.676 53.564C9.676 53.108 9.54 52.764 9.268 52.532C9.004 52.292 8.588 52.172 8.02 52.172H6.46V54.944H8.02ZM15.9874 55.148C15.9874 54.748 15.8754 54.44 15.6514 54.224C15.4354 54 15.1354 53.888 14.7514 53.888C14.3914 53.888 14.0834 53.972 13.8274 54.14C13.5714 54.308 13.3834 54.58 13.2634 54.956L12.1834 54.5C12.3354 54.012 12.6314 53.62 13.0714 53.324C13.5194 53.028 14.0954 52.88 14.7994 52.88C15.2794 52.88 15.7034 52.96 16.0714 53.12C16.4394 53.272 16.7274 53.504 16.9354 53.816C17.1514 54.128 17.2594 54.528 17.2594 55.016V57.692C17.2594 57.988 17.4074 58.136 17.7034 58.136C17.8474 58.136 17.9874 58.116 18.1234 58.076L18.0514 58.964C17.8674 59.052 17.6354 59.096 17.3554 59.096C17.0994 59.096 16.8674 59.052 16.6594 58.964C16.4594 58.868 16.2994 58.728 16.1794 58.544C16.0674 58.352 16.0114 58.116 16.0114 57.836V57.752L16.2754 57.74C16.2034 58.052 16.0554 58.312 15.8314 58.52C15.6074 58.72 15.3474 58.872 15.0514 58.976C14.7554 59.072 14.4554 59.12 14.1514 59.12C13.7754 59.12 13.4354 59.06 13.1314 58.94C12.8354 58.82 12.5994 58.64 12.4234 58.4C12.2554 58.152 12.1714 57.848 12.1714 57.488C12.1714 57.04 12.3154 56.672 12.6034 56.384C12.8994 56.096 13.3154 55.9 13.8514 55.796L16.1794 55.34L16.1674 56.24L14.4754 56.588C14.1394 56.652 13.8874 56.744 13.7194 56.864C13.5514 56.984 13.4674 57.16 13.4674 57.392C13.4674 57.616 13.5514 57.796 13.7194 57.932C13.8954 58.06 14.1274 58.124 14.4154 58.124C14.6154 58.124 14.8074 58.1 14.9914 58.052C15.1834 58.004 15.3554 57.928 15.5074 57.824C15.6594 57.712 15.7754 57.572 15.8554 57.404C15.9434 57.228 15.9874 57.02 15.9874 56.78V55.148ZM21.4992 59.12C21.1072 59.12 20.7432 59.048 20.4072 58.904C20.0792 58.76 19.8152 58.528 19.6152 58.208C19.4152 57.888 19.3152 57.472 19.3152 56.96V53H20.5992V56.636C20.5992 57.18 20.7152 57.556 20.9472 57.764C21.1792 57.964 21.5032 58.064 21.9192 58.064C22.1192 58.064 22.3112 58.032 22.4952 57.968C22.6872 57.896 22.8592 57.788 23.0112 57.644C23.1632 57.492 23.2792 57.3 23.3592 57.068C23.4472 56.836 23.4912 56.564 23.4912 56.252V53H24.7752V59H23.6472L23.5872 58.028C23.3792 58.404 23.0992 58.68 22.7472 58.856C22.3952 59.032 21.9792 59.12 21.4992 59.12ZM29.0612 59.12C28.4612 59.12 27.9132 59.004 27.4172 58.772C26.9212 58.54 26.5292 58.212 26.2412 57.788L27.1292 57.02C27.3052 57.348 27.5572 57.612 27.8852 57.812C28.2212 58.004 28.6212 58.1 29.0852 58.1C29.4532 58.1 29.7452 58.036 29.9612 57.908C30.1772 57.78 30.2852 57.6 30.2852 57.368C30.2852 57.216 30.2332 57.084 30.1292 56.972C30.0332 56.852 29.8452 56.76 29.5652 56.696L28.3052 56.432C27.6652 56.304 27.2092 56.1 26.9372 55.82C26.6652 55.532 26.5292 55.168 26.5292 54.728C26.5292 54.4 26.6252 54.096 26.8172 53.816C27.0092 53.536 27.2892 53.312 27.6572 53.144C28.0332 52.968 28.4812 52.88 29.0012 52.88C29.6012 52.88 30.1132 52.988 30.5372 53.204C30.9612 53.412 31.2852 53.712 31.5092 54.104L30.6212 54.848C30.4692 54.528 30.2452 54.292 29.9492 54.14C29.6532 53.98 29.3452 53.9 29.0252 53.9C28.7692 53.9 28.5492 53.932 28.3652 53.996C28.1812 54.06 28.0412 54.148 27.9452 54.26C27.8492 54.372 27.8012 54.504 27.8012 54.656C27.8012 54.816 27.8612 54.956 27.9812 55.076C28.1012 55.196 28.3172 55.288 28.6292 55.352L29.9972 55.64C30.5732 55.752 30.9772 55.944 31.2092 56.216C31.4492 56.48 31.5692 56.804 31.5692 57.188C31.5692 57.572 31.4692 57.912 31.2692 58.208C31.0692 58.496 30.7812 58.72 30.4052 58.88C30.0292 59.04 29.5812 59.12 29.0612 59.12ZM35.761 59.12C35.161 59.12 34.633 58.996 34.177 58.748C33.721 58.5 33.365 58.144 33.109 57.68C32.861 57.208 32.737 56.648 32.737 56C32.737 55.352 32.861 54.796 33.109 54.332C33.365 53.86 33.717 53.5 34.165 53.252C34.613 53.004 35.121 52.88 35.689 52.88C36.273 52.88 36.769 53 37.177 53.24C37.585 53.48 37.897 53.808 38.113 54.224C38.329 54.64 38.437 55.112 38.437 55.64C38.437 55.784 38.433 55.92 38.425 56.048C38.417 56.176 38.405 56.288 38.389 56.384H33.565V55.4H37.825L37.189 55.592C37.189 55.048 37.053 54.632 36.781 54.344C36.509 54.048 36.137 53.9 35.665 53.9C35.321 53.9 35.021 53.98 34.765 54.14C34.509 54.3 34.313 54.54 34.177 54.86C34.041 55.172 33.973 55.556 33.973 56.012C33.973 56.46 34.045 56.84 34.189 57.152C34.333 57.464 34.537 57.7 34.801 57.86C35.065 58.02 35.377 58.1 35.737 58.1C36.137 58.1 36.461 58.024 36.709 57.872C36.957 57.72 37.153 57.508 37.297 57.236L38.317 57.716C38.173 58.004 37.977 58.256 37.729 58.472C37.489 58.68 37.201 58.84 36.865 58.952C36.529 59.064 36.161 59.12 35.761 59.12Z" fill="white"/>
<rect x="68.5" y="0.5" width="43" height="43" rx="21.5" fill="white"/>
<path d="M83.25 17.5C83.25 16.2574 84.2574 15.25 85.5 15.25H94.5C95.7426 15.25 96.75 16.2574 96.75 17.5V26.5C96.75 27.7426 95.7426 28.75 94.5 28.75H85.5C84.2574 28.75 83.25 27.7426 83.25 26.5V17.5Z" stroke="#0F172A" stroke-width="1.5" stroke-linecap="round" stroke-linejoin="round"/>
<rect x="68.5" y="0.5" width="43" height="43" rx="21.5" stroke="black"/>
<path d="M79.876 50.96C80.588 50.96 81.204 51.096 81.724 51.368C82.244 51.632 82.684 52.024 83.044 52.544L82.18 53.372C81.876 52.908 81.532 52.576 81.148 52.376C80.772 52.168 80.324 52.064 79.804 52.064C79.42 52.064 79.104 52.116 78.856 52.22C78.608 52.324 78.424 52.464 78.304 52.64C78.192 52.808 78.136 53 78.136 53.216C78.136 53.464 78.22 53.68 78.388 53.864C78.564 54.048 78.888 54.192 79.36 54.296L80.968 54.656C81.736 54.824 82.28 55.08 82.6 55.424C82.92 55.768 83.08 56.204 83.08 56.732C83.08 57.22 82.948 57.644 82.684 58.004C82.42 58.364 82.052 58.64 81.58 58.832C81.116 59.024 80.568 59.12 79.936 59.12C79.376 59.12 78.872 59.048 78.424 58.904C77.976 58.76 77.584 58.564 77.248 58.316C76.912 58.068 76.636 57.784 76.42 57.464L77.308 56.576C77.476 56.856 77.688 57.108 77.944 57.332C78.2 57.548 78.496 57.716 78.832 57.836C79.176 57.956 79.556 58.016 79.972 58.016C80.34 58.016 80.656 57.972 80.92 57.884C81.192 57.796 81.396 57.668 81.532 57.5C81.676 57.324 81.748 57.116 81.748 56.876C81.748 56.644 81.668 56.44 81.508 56.264C81.356 56.088 81.068 55.952 80.644 55.856L78.904 55.46C78.424 55.356 78.028 55.208 77.716 55.016C77.404 54.824 77.172 54.592 77.02 54.32C76.868 54.04 76.792 53.728 76.792 53.384C76.792 52.936 76.912 52.532 77.152 52.172C77.4 51.804 77.756 51.512 78.22 51.296C78.684 51.072 79.236 50.96 79.876 50.96ZM86.4472 51.236V57.2C86.4472 57.496 86.5232 57.712 86.6752 57.848C86.8352 57.984 87.0472 58.052 87.3112 58.052C87.5272 58.052 87.7152 58.02 87.8752 57.956C88.0352 57.884 88.1832 57.788 88.3192 57.668L88.6072 58.604C88.4232 58.764 88.1952 58.892 87.9232 58.988C87.6592 59.076 87.3632 59.12 87.0352 59.12C86.6912 59.12 86.3752 59.064 86.0872 58.952C85.7992 58.84 85.5752 58.66 85.4152 58.412C85.2552 58.156 85.1712 57.824 85.1632 57.416V51.596L86.4472 51.236ZM88.5112 53V54.008H84.0112V53H88.5112ZM92.3852 52.88C92.9692 52.88 93.4852 53.004 93.9332 53.252C94.3812 53.5 94.7292 53.86 94.9772 54.332C95.2332 54.796 95.3612 55.352 95.3612 56C95.3612 56.648 95.2332 57.208 94.9772 57.68C94.7292 58.144 94.3812 58.5 93.9332 58.748C93.4852 58.996 92.9692 59.12 92.3852 59.12C91.8012 59.12 91.2852 58.996 90.8372 58.748C90.3892 58.5 90.0372 58.144 89.7812 57.68C89.5252 57.208 89.3972 56.648 89.3972 56C89.3972 55.352 89.5252 54.796 89.7812 54.332C90.0372 53.86 90.3892 53.5 90.8372 53.252C91.2852 53.004 91.8012 52.88 92.3852 52.88ZM92.3852 53.888C92.0252 53.888 91.7172 53.972 91.4612 54.14C91.2132 54.3 91.0212 54.536 90.8852 54.848C90.7492 55.16 90.6812 55.544 90.6812 56C90.6812 56.448 90.7492 56.832 90.8852 57.152C91.0212 57.464 91.2132 57.704 91.4612 57.872C91.7172 58.032 92.0252 58.112 92.3852 58.112C92.7452 58.112 93.0492 58.032 93.2972 57.872C93.5452 57.704 93.7372 57.464 93.8732 57.152C94.0092 56.832 94.0772 56.448 94.0772 56C94.0772 55.544 94.0092 55.16 93.8732 54.848C93.7372 54.536 93.5452 54.3 93.2972 54.14C93.0492 53.972 92.7452 53.888 92.3852 53.888ZM96.9765 61.52V53H98.1165L98.2125 54.68L98.0445 54.476C98.1405 54.164 98.2885 53.888 98.4885 53.648C98.6885 53.408 98.9365 53.22 99.2325 53.084C99.5365 52.948 99.8685 52.88 100.228 52.88C100.716 52.88 101.16 53.004 101.56 53.252C101.96 53.5 102.276 53.856 102.508 54.32C102.74 54.776 102.856 55.332 102.856 55.988C102.856 56.644 102.736 57.208 102.496 57.68C102.264 58.144 101.944 58.5 101.536 58.748C101.136 58.996 100.688 59.12 100.192 59.12C99.6805 59.12 99.2445 58.988 98.8845 58.724C98.5245 58.452 98.2685 58.108 98.1165 57.692L98.2605 57.488V61.52H96.9765ZM99.9165 58.076C100.436 58.076 100.84 57.892 101.128 57.524C101.424 57.156 101.572 56.648 101.572 56C101.572 55.352 101.428 54.844 101.14 54.476C100.852 54.1 100.452 53.912 99.9405 53.912C99.6045 53.912 99.3085 54 99.0525 54.176C98.8045 54.344 98.6085 54.584 98.4645 54.896C98.3285 55.2 98.2605 55.568 98.2605 56C98.2605 56.424 98.3285 56.792 98.4645 57.104C98.6005 57.416 98.7925 57.656 99.0405 57.824C99.2885 57.992 99.5805 58.076 99.9165 58.076Z" fill="white"/>
<rect x="137.5" y="0.5" width="43" height="43" rx="21.5" fill="white"/>
<path d="M162.75 20.5L167.47 15.7803C167.942 15.3079 168.75 15.6425 168.75 16.3107V27.6893C168.75 28.3575 167.942 28.6921 167.47 28.2197L162.75 23.5M151.5 28.75H160.5C161.743 28.75 162.75 27.7426 162.75 26.5V17.5C162.75 16.2574 161.743 15.25 160.5 15.25H151.5C150.257 15.25 149.25 16.2574 149.25 17.5V26.5C149.25 27.7426 150.257 28.75 151.5 28.75Z" stroke="#0F172A" stroke-width="1.5" stroke-linecap="round" stroke-linejoin="round"/>
<g filter="url(#filter0_d_160_1863)">
<rect x="169" y="34" width="12" height="12" rx="2" fill="white"/>
<path d="M177.64 41.0167L175.467 38.8433C175.21 38.5867 174.79 38.5867 174.533 38.8433L172.36 41.0167" stroke="black" stroke-miterlimit="10" stroke-linecap="round" stroke-linejoin="round"/>
</g>
<rect x="137.5" y="0.5" width="43" height="43" rx="21.5" stroke="black"/>
<path d="M143.74 56.9C143.58 57.38 143.34 57.788 143.02 58.124C142.7 58.452 142.324 58.7 141.892 58.868C141.46 59.036 140.984 59.12 140.464 59.12C139.704 59.12 139.044 58.956 138.484 58.628C137.924 58.3 137.492 57.832 137.188 57.224C136.884 56.616 136.732 55.888 136.732 55.04C136.732 54.192 136.884 53.464 137.188 52.856C137.492 52.248 137.924 51.78 138.484 51.452C139.044 51.124 139.7 50.96 140.452 50.96C140.972 50.96 141.44 51.032 141.856 51.176C142.28 51.32 142.64 51.536 142.936 51.824C143.232 52.112 143.46 52.472 143.62 52.904L142.408 53.444C142.248 52.972 142.016 52.628 141.712 52.412C141.408 52.188 141.012 52.076 140.524 52.076C140.036 52.076 139.608 52.192 139.24 52.424C138.872 52.656 138.584 52.992 138.376 53.432C138.176 53.872 138.076 54.408 138.076 55.04C138.076 55.664 138.172 56.2 138.364 56.648C138.556 57.088 138.832 57.424 139.192 57.656C139.552 57.888 139.984 58.004 140.488 58.004C140.976 58.004 141.396 57.88 141.748 57.632C142.108 57.376 142.364 56.996 142.516 56.492L143.74 56.9ZM148.667 55.148C148.667 54.748 148.555 54.44 148.331 54.224C148.115 54 147.815 53.888 147.431 53.888C147.071 53.888 146.763 53.972 146.507 54.14C146.251 54.308 146.063 54.58 145.943 54.956L144.863 54.5C145.015 54.012 145.311 53.62 145.751 53.324C146.199 53.028 146.775 52.88 147.479 52.88C147.959 52.88 148.383 52.96 148.751 53.12C149.119 53.272 149.407 53.504 149.615 53.816C149.831 54.128 149.939 54.528 149.939 55.016V57.692C149.939 57.988 150.087 58.136 150.383 58.136C150.527 58.136 150.667 58.116 150.803 58.076L150.731 58.964C150.547 59.052 150.315 59.096 150.035 59.096C149.779 59.096 149.547 59.052 149.339 58.964C149.139 58.868 148.979 58.728 148.859 58.544C148.747 58.352 148.691 58.116 148.691 57.836V57.752L148.955 57.74C148.883 58.052 148.735 58.312 148.511 58.52C148.287 58.72 148.027 58.872 147.731 58.976C147.435 59.072 147.135 59.12 146.831 59.12C146.455 59.12 146.115 59.06 145.811 58.94C145.515 58.82 145.279 58.64 145.103 58.4C144.935 58.152 144.851 57.848 144.851 57.488C144.851 57.04 144.995 56.672 145.283 56.384C145.579 56.096 145.995 55.9 146.531 55.796L148.859 55.34L148.847 56.24L147.155 56.588C146.819 56.652 146.567 56.744 146.399 56.864C146.231 56.984 146.147 57.16 146.147 57.392C146.147 57.616 146.231 57.796 146.399 57.932C146.575 58.06 146.807 58.124 147.095 58.124C147.295 58.124 147.487 58.1 147.671 58.052C147.863 58.004 148.035 57.928 148.187 57.824C148.339 57.712 148.455 57.572 148.535 57.404C148.623 57.228 148.667 57.02 148.667 56.78V55.148ZM152.043 59V53H153.183L153.243 54.008C153.451 53.624 153.727 53.34 154.071 53.156C154.423 52.972 154.795 52.88 155.187 52.88C155.619 52.88 156.015 52.98 156.375 53.18C156.743 53.372 157.019 53.664 157.203 54.056C157.331 53.792 157.507 53.572 157.731 53.396C157.955 53.22 158.203 53.092 158.475 53.012C158.747 52.924 159.015 52.88 159.279 52.88C159.663 52.88 160.023 52.96 160.359 53.12C160.695 53.28 160.967 53.524 161.175 53.852C161.383 54.18 161.487 54.6 161.487 55.112V59H160.203V55.316C160.203 54.828 160.087 54.476 159.855 54.26C159.623 54.044 159.327 53.936 158.967 53.936C158.687 53.936 158.427 54.004 158.187 54.14C157.955 54.276 157.767 54.48 157.623 54.752C157.479 55.016 157.407 55.344 157.407 55.736V59H156.123V55.316C156.123 54.828 156.007 54.476 155.775 54.26C155.543 54.044 155.247 53.936 154.887 53.936C154.647 53.936 154.407 54 154.167 54.128C153.927 54.256 153.727 54.456 153.567 54.728C153.407 55 153.327 55.36 153.327 55.808V59H152.043ZM166.074 59.12C165.474 59.12 164.946 58.996 164.49 58.748C164.034 58.5 163.678 58.144 163.422 57.68C163.174 57.208 163.05 56.648 163.05 56C163.05 55.352 163.174 54.796 163.422 54.332C163.678 53.86 164.03 53.5 164.478 53.252C164.926 53.004 165.434 52.88 166.002 52.88C166.586 52.88 167.082 53 167.49 53.24C167.898 53.48 168.21 53.808 168.426 54.224C168.642 54.64 168.75 55.112 168.75 55.64C168.75 55.784 168.746 55.92 168.738 56.048C168.73 56.176 168.718 56.288 168.702 56.384H163.878V55.4H168.138L167.502 55.592C167.502 55.048 167.366 54.632 167.094 54.344C166.822 54.048 166.45 53.9 165.978 53.9C165.634 53.9 165.334 53.98 165.078 54.14C164.822 54.3 164.626 54.54 164.49 54.86C164.354 55.172 164.286 55.556 164.286 56.012C164.286 56.46 164.358 56.84 164.502 57.152C164.646 57.464 164.85 57.7 165.114 57.86C165.378 58.02 165.69 58.1 166.05 58.1C166.45 58.1 166.774 58.024 167.022 57.872C167.27 57.72 167.466 57.508 167.61 57.236L168.63 57.716C168.486 58.004 168.29 58.256 168.042 58.472C167.802 58.68 167.514 58.84 167.178 58.952C166.842 59.064 166.474 59.12 166.074 59.12ZM170.371 59V53H171.463L171.583 54.08C171.743 53.688 171.979 53.392 172.291 53.192C172.611 52.984 173.003 52.88 173.467 52.88C173.587 52.88 173.707 52.892 173.827 52.916C173.947 52.932 174.047 52.96 174.127 53L173.947 54.128C173.859 54.096 173.759 54.072 173.647 54.056C173.543 54.032 173.399 54.02 173.215 54.02C172.967 54.02 172.723 54.088 172.483 54.224C172.243 54.352 172.043 54.548 171.883 54.812C171.731 55.076 171.655 55.412 171.655 55.82V59H170.371ZM178.679 55.148C178.679 54.748 178.567 54.44 178.343 54.224C178.127 54 177.827 53.888 177.443 53.888C177.083 53.888 176.775 53.972 176.519 54.14C176.263 54.308 176.075 54.58 175.955 54.956L174.875 54.5C175.027 54.012 175.323 53.62 175.763 53.324C176.211 53.028 176.787 52.88 177.491 52.88C177.971 52.88 178.395 52.96 178.763 53.12C179.131 53.272 179.419 53.504 179.627 53.816C179.843 54.128 179.951 54.528 179.951 55.016V57.692C179.951 57.988 180.099 58.136 180.395 58.136C180.539 58.136 180.679 58.116 180.815 58.076L180.743 58.964C180.559 59.052 180.327 59.096 180.047 59.096C179.791 59.096 179.559 59.052 179.351 58.964C179.151 58.868 178.991 58.728 178.871 58.544C178.759 58.352 178.703 58.116 178.703 57.836V57.752L178.967 57.74C178.895 58.052 178.747 58.312 178.523 58.52C178.299 58.72 178.039 58.872 177.743 58.976C177.447 59.072 177.147 59.12 176.843 59.12C176.467 59.12 176.127 59.06 175.823 58.94C175.527 58.82 175.291 58.64 175.115 58.4C174.947 58.152 174.863 57.848 174.863 57.488C174.863 57.04 175.007 56.672 175.295 56.384C175.591 56.096 176.007 55.9 176.543 55.796L178.871 55.34L178.859 56.24L177.167 56.588C176.831 56.652 176.579 56.744 176.411 56.864C176.243 56.984 176.159 57.16 176.159 57.392C176.159 57.616 176.243 57.796 176.411 57.932C176.587 58.06 176.819 58.124 177.107 58.124C177.307 58.124 177.499 58.1 177.683 58.052C177.875 58.004 178.047 57.928 178.199 57.824C178.351 57.712 178.467 57.572 178.547 57.404C178.635 57.228 178.679 57.02 178.679 56.78V55.148Z" fill="white"/>
<rect x="206.5" y="0.5" width="43" height="43" rx="21.5" fill="white"/>
<path d="M228 28.75C231.314 28.75 234 26.0637 234 22.75V21.25M228 28.75C224.686 28.75 222 26.0637 222 22.75V21.25M228 28.75V32.5M224.25 32.5H231.75M228 25.75C226.343 25.75 225 24.4069 225 22.75V14.5C225 12.8431 226.343 11.5 228 11.5C229.657 11.5 231 12.8431 231 14.5V22.75C231 24.4069 229.657 25.75 228 25.75Z" stroke="#0F172A" stroke-width="1.5" stroke-linecap="round" stroke-linejoin="round"/>
<g filter="url(#filter1_d_160_1863)">
<rect x="238" y="34" width="12" height="12" rx="2" fill="white"/>
<path d="M246.64 41.0167L244.467 38.8433C244.21 38.5867 243.79 38.5867 243.533 38.8433L241.36 41.0167" stroke="black" stroke-miterlimit="10" stroke-linecap="round" stroke-linejoin="round"/>
</g>
<rect x="206.5" y="0.5" width="43" height="43" rx="21.5" stroke="black"/>
<path d="M226.776 51.08V59H225.588V54.416L225.684 52.232H225.672L223.26 59H222.192L219.78 52.232H219.768L219.864 54.416V59H218.676V51.08H220.584L222.18 55.664L222.732 57.548H222.756L223.32 55.664L224.904 51.08H226.776ZM229.597 51.992C229.317 51.992 229.101 51.924 228.949 51.788C228.805 51.644 228.733 51.444 228.733 51.188C228.733 50.932 228.805 50.736 228.949 50.6C229.101 50.464 229.317 50.396 229.597 50.396C229.869 50.396 230.077 50.464 230.221 50.6C230.373 50.736 230.449 50.932 230.449 51.188C230.449 51.444 230.373 51.644 230.221 51.788C230.077 51.924 229.869 51.992 229.597 51.992ZM230.233 53V59H228.949V53H230.233ZM234.834 52.88C235.314 52.88 235.722 52.952 236.058 53.096C236.402 53.232 236.69 53.428 236.922 53.684C237.154 53.94 237.33 54.232 237.45 54.56L236.238 55.04C236.134 54.672 235.966 54.392 235.734 54.2C235.51 54 235.214 53.9 234.846 53.9C234.486 53.9 234.178 53.984 233.922 54.152C233.666 54.312 233.47 54.548 233.334 54.86C233.206 55.172 233.142 55.556 233.142 56.012C233.142 56.46 233.21 56.84 233.346 57.152C233.482 57.464 233.678 57.7 233.934 57.86C234.19 58.02 234.494 58.1 234.846 58.1C235.118 58.1 235.354 58.056 235.554 57.968C235.754 57.872 235.918 57.74 236.046 57.572C236.182 57.396 236.274 57.184 236.322 56.936L237.486 57.332C237.374 57.692 237.198 58.008 236.958 58.28C236.726 58.544 236.434 58.752 236.082 58.904C235.73 59.048 235.326 59.12 234.87 59.12C234.278 59.12 233.754 58.996 233.298 58.748C232.842 58.5 232.486 58.144 232.23 57.68C231.982 57.208 231.858 56.648 231.858 56C231.858 55.352 231.982 54.796 232.23 54.332C232.486 53.86 232.838 53.5 233.286 53.252C233.742 53.004 234.258 52.88 234.834 52.88Z" fill="white"/>
<rect x="274.5" y="0.5" width="43" height="43" rx="21.5" fill="#4B4B4B"/>
<path d="M298.74 19L298.394 28M293.606 28L293.26 19M303.228 15.7906C303.57 15.8422 303.91 15.8975 304.25 15.9563M303.228 15.7906L302.16 29.6726C302.07 30.8448 301.092 31.75 299.916 31.75H292.084C290.908 31.75 289.93 30.8448 289.84 29.6726L288.772 15.7906M303.228 15.7906C302.081 15.6174 300.922 15.4849 299.75 15.3943M287.75 15.9563C288.09 15.8975 288.43 15.8422 288.772 15.7906M288.772 15.7906C289.919 15.6174 291.078 15.4849 292.25 15.3943M299.75 15.3943V14.4782C299.75 13.2988 298.839 12.3142 297.661 12.2765C297.109 12.2589 296.556 12.25 296 12.25C295.444 12.25 294.891 12.2589 294.339 12.2765C293.161 12.3142 292.25 13.2988 292.25 14.4782V15.3943M299.75 15.3943C298.513 15.2987 297.262 15.25 296 15.25C294.738 15.25 293.487 15.2987 292.25 15.3943" stroke="#BEBEBE" stroke-width="1.5" stroke-linecap="round" stroke-linejoin="round"/>
<rect x="274.5" y="0.5" width="43" height="43" rx="21.5" stroke="black"/>
<defs>
<filter id="filter0_d_160_1863" x="165" y="34" width="20" height="20" filterUnits="userSpaceOnUse" color-interpolation-filters="sRGB">
<feFlood flood-opacity="0" result="BackgroundImageFix"/>
<feColorMatrix in="SourceAlpha" type="matrix" values="0 0 0 0 0 0 0 0 0 0 0 0 0 0 0 0 0 0 127 0" result="hardAlpha"/>
<feOffset dy="4"/>
<feGaussianBlur stdDeviation="2"/>
<feComposite in2="hardAlpha" operator="out"/>
<feColorMatrix type="matrix" values="0 0 0 0 0 0 0 0 0 0 0 0 0 0 0 0 0 0 0.25 0"/>
<feBlend mode="normal" in2="BackgroundImageFix" result="effect1_dropShadow_160_1863"/>
<feBlend mode="normal" in="SourceGraphic" in2="effect1_dropShadow_160_1863" result="shape"/>
</filter>
<filter id="filter1_d_160_1863" x="234" y="34" width="20" height="20" filterUnits="userSpaceOnUse" color-interpolation-filters="sRGB">
<feFlood flood-opacity="0" result="BackgroundImageFix"/>
<feColorMatrix in="SourceAlpha" type="matrix" values="0 0 0 0 0 0 0 0 0 0 0 0 0 0 0 0 0 0 127 0" result="hardAlpha"/>
<feOffset dy="4"/>
<feGaussianBlur stdDeviation="2"/>
<feComposite in2="hardAlpha" operator="out"/>
<feColorMatrix type="matrix" values="0 0 0 0 0 0 0 0 0 0 0 0 0 0 0 0 0 0 0.25 0"/>
<feBlend mode="normal" in2="BackgroundImageFix" result="effect1_dropShadow_160_1863"/>
<feBlend mode="normal" in="SourceGraphic" in2="effect1_dropShadow_160_1863" result="shape"/>
</filter>
</defs>
</svg>
