<svg width="439" height="25" viewBox="0 0 439 25" fill="none" xmlns="http://www.w3.org/2000/svg">
<path d="M0.5 12.5L200.5 12.5" stroke="#B9C2C8" stroke-linecap="round"/>
<path d="M216.716 18.1541C216 18.1541 215.375 17.9901 214.842 17.6619C214.308 17.3338 213.894 16.8748 213.599 16.2848C213.304 15.6948 213.156 15.0054 213.156 14.2166C213.156 13.4245 213.304 12.7318 213.599 12.1385C213.894 11.5452 214.308 11.0845 214.842 10.7564C215.375 10.4283 216 10.2642 216.716 10.2642C217.432 10.2642 218.057 10.4283 218.59 10.7564C219.124 11.0845 219.538 11.5452 219.833 12.1385C220.128 12.7318 220.276 13.4245 220.276 14.2166C220.276 15.0054 220.128 15.6948 219.833 16.2848C219.538 16.8748 219.124 17.3338 218.59 17.6619C218.057 17.9901 217.432 18.1541 216.716 18.1541ZM216.721 16.9062C217.185 16.9062 217.569 16.7836 217.874 16.5384C218.179 16.2931 218.405 15.9666 218.55 15.5589C218.7 15.1513 218.774 14.7022 218.774 14.2116C218.774 13.7244 218.7 13.277 218.55 12.8693C218.405 12.4583 218.179 12.1286 217.874 11.88C217.569 11.6314 217.185 11.5071 216.721 11.5071C216.254 11.5071 215.866 11.6314 215.558 11.88C215.253 12.1286 215.026 12.4583 214.876 12.8693C214.731 13.277 214.658 13.7244 214.658 14.2116C214.658 14.7022 214.731 15.1513 214.876 15.5589C215.026 15.9666 215.253 16.2931 215.558 16.5384C215.866 16.7836 216.254 16.9062 216.721 16.9062ZM222.075 18V10.3636H223.512V11.5767H223.591C223.73 11.1657 223.976 10.8426 224.327 10.6072C224.682 10.3686 225.083 10.2493 225.53 10.2493C225.623 10.2493 225.732 10.2526 225.858 10.2592C225.987 10.2659 226.089 10.2741 226.161 10.2841V11.706C226.102 11.6894 225.996 11.6712 225.843 11.6513C225.691 11.6281 225.538 11.6165 225.386 11.6165C225.035 11.6165 224.721 11.6911 224.446 11.8402C224.175 11.986 223.959 12.1899 223.8 12.4517C223.641 12.7102 223.561 13.0052 223.561 13.3366V18H222.075Z" fill="#B9C2C8"/>
<path d="M238.5 12.5L438.5 12.5" stroke="#B9C2C8" stroke-linecap="round"/>
</svg>
