<svg width="48" height="48" viewBox="0 0 48 48" fill="none" xmlns="http://www.w3.org/2000/svg">
<rect width="48" height="48" rx="24" fill="#413C6D"/>
<path d="M29.5867 10.6667H18.4134C13.5601 10.6667 10.6667 13.56 10.6667 18.4134V29.5734C10.6667 34.44 13.5601 37.3334 18.4134 37.3334H29.5734C34.4267 37.3334 37.3201 34.44 37.3201 29.5867V18.4134C37.3334 13.56 34.4401 10.6667 29.5867 10.6667ZM15.0001 23.8534C15.0401 21.5067 15.9734 19.2934 17.6267 17.64C19.3334 15.9334 21.6001 15 24.0001 15C26.4001 15 28.6667 15.9334 30.3601 17.64C30.4001 17.68 30.4401 17.7334 30.4801 17.7867V16.64C30.4801 16.0934 30.9334 15.64 31.4801 15.64C32.0267 15.64 32.4801 16.0934 32.4801 16.64V20.1734C32.4801 20.72 32.0267 21.1734 31.4801 21.1734H27.9467C27.4001 21.1734 26.9467 20.72 26.9467 20.1734C26.9467 19.6267 27.4001 19.1734 27.9467 19.1734H29.0534C29.0134 19.1334 28.9867 19.0934 28.9467 19.0534C27.6267 17.7334 25.8667 17 24.0001 17C22.1334 17 20.3734 17.7334 19.0534 19.0534C17.7601 20.3467 17.0401 22.0667 17.0134 23.8934C17.0001 24.4267 16.5467 24.8667 16.0001 24.8667H15.9867C15.4401 24.8667 15.0001 24.4 15.0001 23.8534ZM30.3601 30.36C28.6667 32.0534 26.4001 33 24.0001 33C21.6001 33 19.3334 32.0667 17.6401 30.36C17.6001 30.32 17.5601 30.2667 17.5201 30.2134V31.3467C17.5201 31.8934 17.0667 32.3467 16.5201 32.3467C15.9734 32.3467 15.5201 31.8934 15.5201 31.3467V27.8134C15.5201 27.2667 15.9734 26.8134 16.5201 26.8134H20.0534C20.6001 26.8134 21.0534 27.2667 21.0534 27.8134C21.0534 28.36 20.6001 28.8134 20.0534 28.8134H18.9467C18.9867 28.8534 19.0134 28.8934 19.0534 28.9334C20.3734 30.2534 22.1334 30.9867 24.0001 30.9867C25.8667 30.9867 27.6267 30.2534 28.9467 28.9334C30.2534 27.6267 30.9867 25.88 30.9867 24.0134C30.9867 23.4667 31.4401 23.0134 31.9867 23.0134C32.5334 23.0134 32.9867 23.4667 32.9867 24.0134C32.9867 26.4267 32.0534 28.68 30.3601 30.36Z" fill="white"/>
</svg>
