<svg width="20" height="20" viewBox="0 0 20 20" fill="none" xmlns="http://www.w3.org/2000/svg">
<path d="M10 20C15.5228 20 20 15.5228 20 10C20 4.47715 15.5228 0 10 0C4.47715 0 0 4.47715 0 10C0 15.5228 4.47715 20 10 20Z" fill="url(#paint0_linear_160_2770)"/>
<path fill-rule="evenodd" clip-rule="evenodd" d="M4.5173 9.89102C7.43008 8.61376 9.37712 7.78821 10.3584 7.38323C13.131 6.23058 13.7073 6.02809 14.0812 6.01251C14.159 6.01251 14.346 6.02809 14.4706 6.12155C14.564 6.19943 14.5952 6.30846 14.6108 6.38634C14.6263 6.46423 14.6419 6.63557 14.6263 6.77575C14.4706 8.34896 13.8319 12.1963 13.4893 13.9564C13.3491 14.7041 13.0687 14.9533 12.8039 14.9845C12.2276 15.0312 11.7759 14.5951 11.2151 14.2368C10.3428 13.6605 9.84441 13.3022 8.98771 12.7415C8.0064 12.0873 8.64503 11.729 9.20578 11.1527C9.34596 10.9969 11.9161 8.67606 11.9628 8.458C11.9628 8.42684 11.9784 8.33338 11.9161 8.28666C11.8538 8.23993 11.7759 8.2555 11.7136 8.27108C11.6201 8.28666 10.2182 9.22124 7.49238 11.0592C7.0874 11.3396 6.72914 11.4642 6.40204 11.4642C6.04378 11.4642 5.35842 11.2617 4.84441 11.0904C4.22135 10.8879 3.72291 10.7789 3.76964 10.4362C3.80079 10.2648 4.05001 10.0779 4.5173 9.89102Z" fill="white"/>
<defs>
<linearGradient id="paint0_linear_160_2770" x1="0" y1="9.99276" x2="19.9855" y2="9.99276" gradientUnits="userSpaceOnUse">
<stop stop-color="#2AABEE"/>
<stop offset="1" stop-color="#229ED9"/>
</linearGradient>
</defs>
</svg>
