<svg width="154" height="56" viewBox="0 0 154 56" fill="none" xmlns="http://www.w3.org/2000/svg">
<path d="M22.4631 35.2415C21.3409 35.2367 20.3821 34.9408 19.5866 34.3537C18.7912 33.7666 18.1828 32.9119 17.7614 31.7898C17.34 30.6676 17.1293 29.3158 17.1293 27.7344C17.1293 26.1577 17.34 24.8106 17.7614 23.6932C18.1875 22.5758 18.7983 21.7235 19.5938 21.1364C20.3939 20.5492 21.3504 20.2557 22.4631 20.2557C23.5758 20.2557 24.5298 20.5516 25.3253 21.1435C26.1207 21.7306 26.7292 22.5829 27.1506 23.7003C27.5767 24.813 27.7898 26.1577 27.7898 27.7344C27.7898 29.3205 27.5791 30.6747 27.1577 31.7969C26.7363 32.9143 26.1278 33.7689 25.3324 34.3608C24.5369 34.9479 23.5805 35.2415 22.4631 35.2415ZM22.4631 33.3452C23.4479 33.3452 24.2173 32.8646 24.7713 31.9034C25.33 30.9422 25.6094 29.5526 25.6094 27.7344C25.6094 26.527 25.4815 25.5066 25.2259 24.6733C24.9749 23.8352 24.6127 23.2008 24.1392 22.7699C23.6705 22.3343 23.1117 22.1165 22.4631 22.1165C21.483 22.1165 20.7135 22.5994 20.1548 23.5653C19.5961 24.5312 19.3144 25.9209 19.3097 27.7344C19.3097 28.9465 19.4351 29.9716 19.6861 30.8097C19.9418 31.643 20.304 32.2751 20.7727 32.706C21.2415 33.1321 21.8049 33.3452 22.4631 33.3452ZM35.3732 35.2415C34.2511 35.2367 33.2923 34.9408 32.4968 34.3537C31.7013 33.7666 31.0929 32.9119 30.6715 31.7898C30.2501 30.6676 30.0394 29.3158 30.0394 27.7344C30.0394 26.1577 30.2501 24.8106 30.6715 23.6932C31.0977 22.5758 31.7085 21.7235 32.5039 21.1364C33.3041 20.5492 34.2605 20.2557 35.3732 20.2557C36.4859 20.2557 37.44 20.5516 38.2354 21.1435C39.0309 21.7306 39.6393 22.5829 40.0607 23.7003C40.4869 24.813 40.6999 26.1577 40.6999 27.7344C40.6999 29.3205 40.4892 30.6747 40.0678 31.7969C39.6464 32.9143 39.038 33.7689 38.2425 34.3608C37.4471 34.9479 36.4906 35.2415 35.3732 35.2415ZM35.3732 33.3452C36.3581 33.3452 37.1275 32.8646 37.6815 31.9034C38.2402 30.9422 38.5195 29.5526 38.5195 27.7344C38.5195 26.527 38.3917 25.5066 38.136 24.6733C37.8851 23.8352 37.5228 23.2008 37.0494 22.7699C36.5806 22.3343 36.0219 22.1165 35.3732 22.1165C34.3931 22.1165 33.6237 22.5994 33.065 23.5653C32.5063 24.5312 32.2246 25.9209 32.2198 27.7344C32.2198 28.9465 32.3453 29.9716 32.5962 30.8097C32.8519 31.643 33.2141 32.2751 33.6829 32.706C34.1516 33.1321 34.7151 33.3452 35.3732 33.3452ZM44.647 33.196C44.2588 33.196 43.925 33.0587 43.6456 32.7841C43.3662 32.5047 43.2266 32.1686 43.2266 31.7756C43.2266 31.3873 43.3662 31.0559 43.6456 30.7812C43.925 30.5019 44.2588 30.3622 44.647 30.3622C45.0353 30.3622 45.3691 30.5019 45.6484 30.7812C45.9278 31.0559 46.0675 31.3873 46.0675 31.7756C46.0675 32.036 46.0012 32.2751 45.8686 32.4929C45.7408 32.706 45.5703 32.8764 45.3572 33.0043C45.1442 33.1321 44.9074 33.196 44.647 33.196ZM44.647 25.9091C44.2588 25.9091 43.925 25.7718 43.6456 25.4972C43.3662 25.2178 43.2266 24.8816 43.2266 24.4886C43.2266 24.1004 43.3662 23.7689 43.6456 23.4943C43.925 23.215 44.2588 23.0753 44.647 23.0753C45.0353 23.0753 45.3691 23.215 45.6484 23.4943C45.9278 23.7689 46.0675 24.1004 46.0675 24.4886C46.0675 24.7491 46.0012 24.9882 45.8686 25.206C45.7408 25.419 45.5703 25.5895 45.3572 25.7173C45.1442 25.8452 44.9074 25.9091 44.647 25.9091ZM53.9474 35.2415C52.8253 35.2367 51.8665 34.9408 51.071 34.3537C50.2756 33.7666 49.6671 32.9119 49.2457 31.7898C48.8243 30.6676 48.6136 29.3158 48.6136 27.7344C48.6136 26.1577 48.8243 24.8106 49.2457 23.6932C49.6719 22.5758 50.2827 21.7235 51.0781 21.1364C51.8783 20.5492 52.8348 20.2557 53.9474 20.2557C55.0601 20.2557 56.0142 20.5516 56.8097 21.1435C57.6051 21.7306 58.2135 22.5829 58.6349 23.7003C59.0611 24.813 59.2741 26.1577 59.2741 27.7344C59.2741 29.3205 59.0634 30.6747 58.642 31.7969C58.2206 32.9143 57.6122 33.7689 56.8168 34.3608C56.0213 34.9479 55.0649 35.2415 53.9474 35.2415ZM53.9474 33.3452C54.9323 33.3452 55.7017 32.8646 56.2557 31.9034C56.8144 30.9422 57.0938 29.5526 57.0938 27.7344C57.0938 26.527 56.9659 25.5066 56.7102 24.6733C56.4593 23.8352 56.0971 23.2008 55.6236 22.7699C55.1548 22.3343 54.5961 22.1165 53.9474 22.1165C52.9673 22.1165 52.1979 22.5994 51.6392 23.5653C51.0805 24.5312 50.7988 25.9209 50.794 27.7344C50.794 28.9465 50.9195 29.9716 51.1705 30.8097C51.4261 31.643 51.7884 32.2751 52.2571 32.706C52.7259 33.1321 53.2893 33.3452 53.9474 33.3452ZM66.8576 35.1989C65.8822 35.1989 65.011 35.0308 64.244 34.6946C63.4817 34.3584 62.878 33.892 62.4329 33.2955C61.9925 32.6941 61.7558 31.9981 61.7227 31.2074H63.9528C63.9812 31.6383 64.1256 32.0123 64.386 32.3295C64.6512 32.642 64.9968 32.8835 65.4229 33.054C65.8491 33.2244 66.3226 33.3097 66.8434 33.3097C67.4163 33.3097 67.9229 33.2102 68.3633 33.0114C68.8084 32.8125 69.1564 32.5355 69.4073 32.1804C69.6583 31.8205 69.7837 31.4062 69.7837 30.9375C69.7837 30.4498 69.6583 30.0213 69.4073 29.652C69.1611 29.2779 68.7989 28.9844 68.3207 28.7713C67.8472 28.5582 67.2743 28.4517 66.6019 28.4517H65.3732V26.6619H66.6019C67.1417 26.6619 67.6152 26.5649 68.0224 26.3707C68.4343 26.1766 68.7563 25.9067 68.9883 25.5611C69.2203 25.2107 69.3363 24.8011 69.3363 24.3324C69.3363 23.8826 69.2345 23.492 69.0309 23.1605C68.832 22.8243 68.5479 22.5616 68.1786 22.3722C67.814 22.1828 67.3832 22.0881 66.886 22.0881C66.4125 22.0881 65.9698 22.1757 65.5579 22.3509C65.1507 22.5213 64.8192 22.7675 64.5636 23.0895C64.3079 23.4067 64.1706 23.7879 64.1516 24.233H62.0281C62.0517 23.447 62.2837 22.7557 62.7241 22.1591C63.1692 21.5625 63.7563 21.0961 64.4854 20.7599C65.2146 20.4238 66.0243 20.2557 66.9144 20.2557C67.8472 20.2557 68.6521 20.438 69.3292 20.8026C70.011 21.1624 70.5366 21.643 70.9059 22.2443C71.2799 22.8456 71.4646 23.5038 71.4599 24.2188C71.4646 25.0331 71.2373 25.7244 70.7781 26.2926C70.3235 26.8608 69.7174 27.242 68.9599 27.4361V27.5497C69.9258 27.6965 70.6739 28.08 71.2042 28.7003C71.7392 29.3205 72.0044 30.09 71.9996 31.0085C72.0044 31.8087 71.7818 32.526 71.332 33.1605C70.887 33.795 70.2785 34.2945 69.5067 34.6591C68.735 35.0189 67.8519 35.1989 66.8576 35.1989ZM76.1119 33.196C75.7236 33.196 75.3898 33.0587 75.1104 32.7841C74.8311 32.5047 74.6914 32.1686 74.6914 31.7756C74.6914 31.3873 74.8311 31.0559 75.1104 30.7812C75.3898 30.5019 75.7236 30.3622 76.1119 30.3622C76.5001 30.3622 76.8339 30.5019 77.1133 30.7812C77.3926 31.0559 77.5323 31.3873 77.5323 31.7756C77.5323 32.036 77.466 32.2751 77.3335 32.4929C77.2056 32.706 77.0352 32.8764 76.8221 33.0043C76.609 33.1321 76.3723 33.196 76.1119 33.196ZM76.1119 25.9091C75.7236 25.9091 75.3898 25.7718 75.1104 25.4972C74.8311 25.2178 74.6914 24.8816 74.6914 24.4886C74.6914 24.1004 74.8311 23.7689 75.1104 23.4943C75.3898 23.215 75.7236 23.0753 76.1119 23.0753C76.5001 23.0753 76.8339 23.215 77.1133 23.4943C77.3926 23.7689 77.5323 24.1004 77.5323 24.4886C77.5323 24.7491 77.466 24.9882 77.3335 25.206C77.2056 25.419 77.0352 25.5895 76.8221 25.7173C76.609 25.8452 76.3723 25.9091 76.1119 25.9091ZM80.043 32.1591V30.3835L86.3285 20.4545H87.7276V23.0682H86.8398L82.3441 30.1847V30.2983H90.9592V32.1591H80.043ZM86.9393 35V31.6193L86.9535 30.8097V20.4545H89.0344V35H86.9393ZM98.2354 35.1989C97.3453 35.1989 96.5451 35.0284 95.8349 34.6875C95.1294 34.3419 94.5659 33.8684 94.1445 33.267C93.7231 32.6657 93.4982 31.9792 93.4698 31.2074H95.6005C95.6526 31.8324 95.9296 32.3461 96.4315 32.7486C96.9334 33.151 97.5347 33.3523 98.2354 33.3523C98.7942 33.3523 99.2889 33.2244 99.7198 32.9688C100.155 32.7083 100.496 32.3509 100.743 31.8963C100.993 31.4418 101.119 30.9233 101.119 30.3409C101.119 29.7491 100.991 29.2211 100.735 28.7571C100.48 28.2931 100.127 27.9285 99.6772 27.6634C99.2321 27.3982 98.7208 27.2633 98.1431 27.2585C97.7028 27.2585 97.2601 27.3343 96.815 27.4858C96.3699 27.6373 96.0101 27.8362 95.7354 28.0824L93.7255 27.7841L94.5423 20.4545H102.539V22.3366H96.3675L95.9059 26.4062H95.9911C96.2752 26.1316 96.6516 25.902 97.1204 25.7173C97.5939 25.5327 98.1005 25.4403 98.6403 25.4403C99.5257 25.4403 100.314 25.651 101.005 26.0724C101.701 26.4938 102.248 27.0691 102.646 27.7983C103.048 28.5227 103.247 29.3561 103.243 30.2983C103.247 31.2405 103.034 32.081 102.603 32.8196C102.177 33.5582 101.585 34.1406 100.828 34.5668C100.075 34.9882 99.2108 35.1989 98.2354 35.1989Z" fill="white"/>
<rect x="113" y="18" width="20" height="20" rx="10" fill="#C00404" fill-opacity="0.19"/>
<rect x="118" y="23" width="10" height="10" rx="5" fill="#C00404"/>
<line x1="153.5" y1="4" x2="153.5" y2="52" stroke="#E8E8E8"/>
</svg>
