<svg width="20" height="22" viewBox="0 0 20 22" fill="none" xmlns="http://www.w3.org/2000/svg">
<path fill-rule="evenodd" clip-rule="evenodd" d="M17.0859 3.87209C15.2061 1.98984 12.7059 0.952737 10.042 0.951782C4.55283 0.951782 0.08547 5.41867 0.08356 10.9093C0.082605 12.6645 0.54147 14.3777 1.41288 15.8876L0 21.0482L5.27909 19.6635C6.7335 20.4571 8.37128 20.8749 10.0377 20.8754H10.042C15.5302 20.8754 19.9981 16.408 20 10.9174C20.0009 8.25639 18.9662 5.75434 17.0859 3.87209ZM10.042 19.1937H10.0387C8.55367 19.1932 7.09689 18.794 5.82583 18.0401L5.52357 17.8606L2.39078 18.6823L3.22686 15.6278L3.03013 15.3146C2.20169 13.9967 1.76383 12.4735 1.76479 10.9098C1.7667 6.34643 5.47963 2.63349 10.0454 2.63349C12.2561 2.63444 14.3342 3.49631 15.8969 5.06103C17.4598 6.62528 18.3197 8.70523 18.3188 10.9164C18.3168 15.4803 14.6039 19.1937 10.042 19.1937ZM14.5819 12.9949C14.3332 12.8703 13.1099 12.2687 12.8816 12.1856C12.6534 12.1025 12.4877 12.061 12.322 12.3102C12.1563 12.5595 11.6793 13.1201 11.5342 13.2857C11.389 13.4519 11.2438 13.4724 10.9951 13.3478C10.7463 13.2232 9.94461 12.9606 8.99395 12.113C8.25433 11.4531 7.75483 10.6386 7.60972 10.3893C7.46456 10.1401 7.59444 10.0054 7.71856 9.88173C7.83028 9.77 7.96733 9.59095 8.09194 9.44578C8.21661 9.30062 8.25767 9.19656 8.34072 9.03084C8.42383 8.86467 8.38228 8.71956 8.32022 8.59489C8.25811 8.47028 7.76061 7.2455 7.55289 6.7475C7.35089 6.26239 7.14561 6.32828 6.99328 6.32017C6.84811 6.313 6.68244 6.31157 6.51628 6.31157C6.35011 6.31157 6.08078 6.37364 5.85256 6.62289C5.62433 6.87212 4.98162 7.47423 4.98162 8.6985C4.98162 9.92278 5.87311 11.1065 5.99772 11.2727C6.12233 11.4388 7.75244 13.9518 10.2483 15.03C10.8418 15.2864 11.3054 15.4397 11.6669 15.5543C12.2628 15.7438 12.8052 15.7171 13.234 15.6531C13.712 15.5815 14.7061 15.051 14.9133 14.4699C15.1206 13.8888 15.1206 13.3903 15.0585 13.2867C14.9964 13.1831 14.8303 13.1205 14.5815 12.9959L14.5819 12.9949Z" fill="#25D366"/>
</svg>
