<svg width="48" height="48" viewBox="0 0 48 48" fill="none" xmlns="http://www.w3.org/2000/svg">
<rect width="48" height="48" rx="24" fill="#413C6D"/>
<path d="M29.5199 11.9467L17.4799 15.9467C9.38658 18.6533 9.38658 23.0667 17.4799 25.76L21.0532 26.9467L22.2399 30.52C24.9332 38.6133 29.3599 38.6133 32.0532 30.52L36.0666 18.4933C37.8532 13.0933 34.9199 10.1467 29.5199 11.9467ZM29.9466 19.12L24.8799 24.2133C24.6799 24.4133 24.4266 24.5067 24.1732 24.5067C23.9199 24.5067 23.6666 24.4133 23.4666 24.2133C23.0799 23.8267 23.0799 23.1867 23.4666 22.8L28.5332 17.7067C28.9199 17.32 29.5599 17.32 29.9466 17.7067C30.3332 18.0933 30.3332 18.7333 29.9466 19.12Z" fill="white"/>
</svg>
