<svg width="24" height="24" viewBox="0 0 24 24" fill="none" xmlns="http://www.w3.org/2000/svg">
<path d="M24 11.9993C24 5.37187 18.6274 -0.000705719 12 -0.000705719C5.37258 -0.000705719 0 5.37187 0 11.9993C0 17.9888 4.38823 22.9533 10.125 23.8535V15.468H7.07813V11.9993H10.125V9.35554C10.125 6.34805 11.9165 4.68679 14.6576 4.68679C15.9705 4.68679 17.3438 4.92117 17.3438 4.92117V7.87429H15.8306C14.3399 7.87429 13.875 8.7993 13.875 9.74829V11.9993H17.2031L16.6711 15.468H13.875V23.8535C19.6118 22.9533 24 17.9888 24 11.9993Z" fill="#1877F2"/>
<path d="M16.6711 15.4688L17.2031 12H13.875V9.74899C13.875 8.80001 14.3399 7.875 15.8306 7.875H17.3438V4.92188C17.3438 4.92188 15.9705 4.6875 14.6576 4.6875C11.9165 4.6875 10.125 6.34875 10.125 9.35625V12H7.07812V15.4688H10.125V23.8542C10.7359 23.9501 11.3621 24 12 24C12.6379 24 13.2641 23.9501 13.875 23.8542V15.4688H16.6711Z" fill="white"/>
</svg>
