<svg width="252" height="56" viewBox="0 0 252 56" fill="none" xmlns="http://www.w3.org/2000/svg">
<path d="M62.5865 2.66666H77.3998C82.1465 2.66666 83.3332 3.85332 83.3332 8.58666V17.0267C83.3332 21.7733 82.1465 22.9467 77.4132 22.9467H62.5865C57.8532 22.96 56.6665 21.7733 56.6665 17.04V8.58666C56.6665 3.85332 57.8532 2.66666 62.5865 2.66666Z" stroke="#928FAB" stroke-width="1.5" stroke-linecap="round" stroke-linejoin="round"/>
<path d="M70 22.96V29.3333" stroke="#928FAB" stroke-width="1.5" stroke-linecap="round" stroke-linejoin="round"/>
<path d="M56.6665 17.3333H83.3332" stroke="#928FAB" stroke-width="1.5" stroke-linecap="round" stroke-linejoin="round"/>
<path d="M64 29.3333H76" stroke="#928FAB" stroke-width="1.5" stroke-linecap="round" stroke-linejoin="round"/>
<path d="M40.05 45.048H34.87V47.736H38.93V49.024H34.87V53H33.372V43.76H40.05V45.048ZM43.7341 53.14C43.2767 53.14 42.8521 53.056 42.4601 52.888C42.0774 52.72 41.7694 52.4493 41.5361 52.076C41.3027 51.7027 41.1861 51.2173 41.1861 50.62V46H42.6841V50.242C42.6841 50.8767 42.8194 51.3153 43.0901 51.558C43.3607 51.7913 43.7387 51.908 44.2241 51.908C44.4574 51.908 44.6814 51.8707 44.8961 51.796C45.1201 51.712 45.3207 51.586 45.4981 51.418C45.6754 51.2407 45.8107 51.0167 45.9041 50.746C46.0067 50.4753 46.0581 50.158 46.0581 49.794V46H47.5561V53H46.2401L46.1701 51.866C45.9274 52.3047 45.6007 52.6267 45.1901 52.832C44.7794 53.0373 44.2941 53.14 43.7341 53.14ZM51.3524 42.85V51.04C51.3524 51.3853 51.413 51.6233 51.5344 51.754C51.6557 51.8847 51.8564 51.95 52.1364 51.95C52.3044 51.95 52.4444 51.9407 52.5564 51.922C52.6777 51.894 52.827 51.8473 53.0044 51.782L52.8364 52.902C52.6777 52.9767 52.4957 53.0327 52.2904 53.07C52.085 53.1167 51.8797 53.14 51.6744 53.14C51.049 53.14 50.587 52.9813 50.2884 52.664C49.999 52.3373 49.8544 51.838 49.8544 51.166V42.85H51.3524ZM55.7137 42.85V51.04C55.7137 51.3853 55.7744 51.6233 55.8957 51.754C56.017 51.8847 56.2177 51.95 56.4977 51.95C56.6657 51.95 56.8057 51.9407 56.9177 51.922C57.039 51.894 57.1884 51.8473 57.3657 51.782L57.1977 52.902C57.039 52.9767 56.857 53.0327 56.6517 53.07C56.4464 53.1167 56.241 53.14 56.0357 53.14C55.4104 53.14 54.9484 52.9813 54.6497 52.664C54.3604 52.3373 54.2157 51.838 54.2157 51.166V42.85H55.7137ZM65.4216 53.14C64.7216 53.14 64.0823 53.0047 63.5036 52.734C62.9249 52.4633 62.4676 52.0807 62.1316 51.586L63.1676 50.69C63.3729 51.0727 63.6669 51.3807 64.0496 51.614C64.4416 51.838 64.9083 51.95 65.4496 51.95C65.8789 51.95 66.2196 51.8753 66.4716 51.726C66.7236 51.5767 66.8496 51.3667 66.8496 51.096C66.8496 50.9187 66.7889 50.7647 66.6676 50.634C66.5556 50.494 66.3363 50.3867 66.0096 50.312L64.5396 50.004C63.7929 49.8547 63.2609 49.6167 62.9436 49.29C62.6263 48.954 62.4676 48.5293 62.4676 48.016C62.4676 47.6333 62.5796 47.2787 62.8036 46.952C63.0276 46.6253 63.3543 46.364 63.7836 46.168C64.2223 45.9627 64.7449 45.86 65.3516 45.86C66.0516 45.86 66.6489 45.986 67.1436 46.238C67.6383 46.4807 68.0163 46.8307 68.2776 47.288L67.2416 48.156C67.0643 47.7827 66.8029 47.5073 66.4576 47.33C66.1123 47.1433 65.7529 47.05 65.3796 47.05C65.0809 47.05 64.8243 47.0873 64.6096 47.162C64.3949 47.2367 64.2316 47.3393 64.1196 47.47C64.0076 47.6007 63.9516 47.7547 63.9516 47.932C63.9516 48.1187 64.0216 48.282 64.1616 48.422C64.3016 48.562 64.5536 48.6693 64.9176 48.744L66.5136 49.08C67.1856 49.2107 67.6569 49.4347 67.9276 49.752C68.2076 50.06 68.3476 50.438 68.3476 50.886C68.3476 51.334 68.2309 51.7307 67.9976 52.076C67.7643 52.412 67.4283 52.6733 66.9896 52.86C66.5509 53.0467 66.0283 53.14 65.4216 53.14ZM73.1821 45.86C73.7421 45.86 74.2181 45.944 74.6101 46.112C75.0114 46.2707 75.3474 46.4993 75.6181 46.798C75.8888 47.0967 76.0941 47.4373 76.2341 47.82L74.8201 48.38C74.6988 47.9507 74.5028 47.624 74.2321 47.4C73.9708 47.1667 73.6254 47.05 73.1961 47.05C72.7761 47.05 72.4168 47.148 72.1181 47.344C71.8194 47.5307 71.5908 47.806 71.4321 48.17C71.2828 48.534 71.2081 48.982 71.2081 49.514C71.2081 50.0367 71.2874 50.48 71.4461 50.844C71.6048 51.208 71.8334 51.4833 72.1321 51.67C72.4308 51.8567 72.7854 51.95 73.1961 51.95C73.5134 51.95 73.7888 51.8987 74.0221 51.796C74.2554 51.684 74.4468 51.53 74.5961 51.334C74.7548 51.1287 74.8621 50.8813 74.9181 50.592L76.2761 51.054C76.1454 51.474 75.9401 51.8427 75.6601 52.16C75.3894 52.468 75.0488 52.7107 74.6381 52.888C74.2274 53.056 73.7561 53.14 73.2241 53.14C72.5334 53.14 71.9221 52.9953 71.3901 52.706C70.8581 52.4167 70.4428 52.0013 70.1441 51.46C69.8548 50.9093 69.7101 50.256 69.7101 49.5C69.7101 48.744 69.8548 48.0953 70.1441 47.554C70.4428 47.0033 70.8534 46.5833 71.3761 46.294C71.9081 46.0047 72.5101 45.86 73.1821 45.86ZM78.0194 53V46H79.2934L79.4334 47.26C79.6201 46.8027 79.8954 46.4573 80.2594 46.224C80.6328 45.9813 81.0901 45.86 81.6314 45.86C81.7714 45.86 81.9114 45.874 82.0514 45.902C82.1914 45.9207 82.3081 45.9533 82.4014 46L82.1914 47.316C82.0888 47.2787 81.9721 47.2507 81.8414 47.232C81.7201 47.204 81.5521 47.19 81.3374 47.19C81.0481 47.19 80.7634 47.2693 80.4834 47.428C80.2034 47.5773 79.9701 47.806 79.7834 48.114C79.6061 48.422 79.5174 48.814 79.5174 49.29V53H78.0194ZM86.7186 53.14C86.0186 53.14 85.4026 52.9953 84.8706 52.706C84.3386 52.4167 83.9232 52.0013 83.6246 51.46C83.3352 50.9093 83.1906 50.256 83.1906 49.5C83.1906 48.744 83.3352 48.0953 83.6246 47.554C83.9232 47.0033 84.3339 46.5833 84.8566 46.294C85.3792 46.0047 85.9719 45.86 86.6346 45.86C87.3159 45.86 87.8946 46 88.3706 46.28C88.8466 46.56 89.2106 46.9427 89.4626 47.428C89.7146 47.9133 89.8406 48.464 89.8406 49.08C89.8406 49.248 89.8359 49.4067 89.8266 49.556C89.8172 49.7053 89.8032 49.836 89.7846 49.948H84.1566V48.8H89.1266L88.3846 49.024C88.3846 48.3893 88.2259 47.904 87.9086 47.568C87.5912 47.2227 87.1572 47.05 86.6066 47.05C86.2052 47.05 85.8552 47.1433 85.5566 47.33C85.2579 47.5167 85.0292 47.7967 84.8706 48.17C84.7119 48.534 84.6326 48.982 84.6326 49.514C84.6326 50.0367 84.7166 50.48 84.8846 50.844C85.0526 51.208 85.2906 51.4833 85.5986 51.67C85.9066 51.8567 86.2706 51.95 86.6906 51.95C87.1572 51.95 87.5352 51.8613 87.8246 51.684C88.1139 51.5067 88.3426 51.2593 88.5106 50.942L89.7006 51.502C89.5326 51.838 89.3039 52.132 89.0146 52.384C88.7346 52.6267 88.3986 52.8133 88.0066 52.944C87.6146 53.0747 87.1852 53.14 86.7186 53.14ZM94.8123 53.14C94.1123 53.14 93.4963 52.9953 92.9643 52.706C92.4323 52.4167 92.017 52.0013 91.7183 51.46C91.429 50.9093 91.2843 50.256 91.2843 49.5C91.2843 48.744 91.429 48.0953 91.7183 47.554C92.017 47.0033 92.4276 46.5833 92.9503 46.294C93.473 46.0047 94.0656 45.86 94.7283 45.86C95.4096 45.86 95.9883 46 96.4643 46.28C96.9403 46.56 97.3043 46.9427 97.5563 47.428C97.8083 47.9133 97.9343 48.464 97.9343 49.08C97.9343 49.248 97.9296 49.4067 97.9203 49.556C97.911 49.7053 97.897 49.836 97.8783 49.948H92.2503V48.8H97.2203L96.4783 49.024C96.4783 48.3893 96.3196 47.904 96.0023 47.568C95.685 47.2227 95.251 47.05 94.7003 47.05C94.299 47.05 93.949 47.1433 93.6503 47.33C93.3516 47.5167 93.123 47.7967 92.9643 48.17C92.8056 48.534 92.7263 48.982 92.7263 49.514C92.7263 50.0367 92.8103 50.48 92.9783 50.844C93.1463 51.208 93.3843 51.4833 93.6923 51.67C94.0003 51.8567 94.3643 51.95 94.7843 51.95C95.251 51.95 95.629 51.8613 95.9183 51.684C96.2076 51.5067 96.4363 51.2593 96.6043 50.942L97.7943 51.502C97.6263 51.838 97.3976 52.132 97.1083 52.384C96.8283 52.6267 96.4923 52.8133 96.1003 52.944C95.7083 53.0747 95.279 53.14 94.8123 53.14ZM99.8261 53V46H101.156L101.254 47.82L101.058 47.624C101.189 47.2227 101.375 46.8913 101.618 46.63C101.87 46.3593 102.164 46.1633 102.5 46.042C102.845 45.9207 103.209 45.86 103.592 45.86C104.087 45.86 104.53 45.958 104.922 46.154C105.323 46.3407 105.641 46.6253 105.874 47.008C106.107 47.3907 106.224 47.876 106.224 48.464V53H104.726V48.926C104.726 48.2353 104.581 47.7593 104.292 47.498C104.012 47.2273 103.657 47.092 103.228 47.092C102.92 47.092 102.621 47.1667 102.332 47.316C102.043 47.456 101.8 47.6847 101.604 48.002C101.417 48.3193 101.324 48.744 101.324 49.276V53H99.8261Z" fill="#928FAB"/>
<path d="M184.333 17.2V22.8C184.333 27.4667 182.467 29.3333 177.8 29.3333H172.2C167.533 29.3333 165.667 27.4667 165.667 22.8V17.2C165.667 12.5333 167.533 10.6667 172.2 10.6667H177.8C182.467 10.6667 184.333 12.5333 184.333 17.2Z" stroke="#120B48" stroke-width="2.5" stroke-linecap="round" stroke-linejoin="round"/>
<path d="M192.333 9.19999V14.8C192.333 19.4667 190.467 21.3333 185.8 21.3333H184.333V17.2C184.333 12.5333 182.467 10.6667 177.8 10.6667H173.667V9.19999C173.667 4.53332 175.533 2.66666 180.2 2.66666H185.8C190.467 2.66666 192.333 4.53332 192.333 9.19999Z" stroke="#120B48" stroke-width="2.5" stroke-linecap="round" stroke-linejoin="round"/>
<path d="M147.114 50.452C146.937 51.0493 146.657 51.5487 146.274 51.95C145.891 52.3513 145.439 52.65 144.916 52.846C144.393 53.042 143.819 53.14 143.194 53.14C142.279 53.14 141.486 52.9487 140.814 52.566C140.151 52.1833 139.638 51.6373 139.274 50.928C138.919 50.2187 138.742 49.3693 138.742 48.38C138.742 47.3907 138.919 46.5413 139.274 45.832C139.638 45.1227 140.151 44.5767 140.814 44.194C141.486 43.8113 142.27 43.62 143.166 43.62C143.801 43.62 144.375 43.7087 144.888 43.886C145.401 44.054 145.835 44.3153 146.19 44.67C146.554 45.0247 146.82 45.4727 146.988 46.014L145.238 46.756C145.079 46.196 144.837 45.7993 144.51 45.566C144.183 45.3233 143.763 45.202 143.25 45.202C142.746 45.202 142.303 45.3233 141.92 45.566C141.547 45.8087 141.257 46.168 141.052 46.644C140.847 47.1107 140.744 47.6893 140.744 48.38C140.744 49.0613 140.837 49.64 141.024 50.116C141.22 50.592 141.505 50.9513 141.878 51.194C142.251 51.4367 142.709 51.558 143.25 51.558C143.754 51.558 144.188 51.4227 144.552 51.152C144.925 50.8813 145.187 50.4707 145.336 49.92L147.114 50.452ZM151.001 53.14C150.534 53.14 150.114 53.056 149.741 52.888C149.367 52.72 149.069 52.454 148.845 52.09C148.63 51.7167 148.523 51.236 148.523 50.648V46H150.441V50.186C150.441 50.7273 150.553 51.1053 150.777 51.32C151.001 51.5253 151.323 51.628 151.743 51.628C151.939 51.628 152.13 51.5953 152.317 51.53C152.503 51.4553 152.667 51.3433 152.807 51.194C152.956 51.0447 153.073 50.8533 153.157 50.62C153.241 50.3773 153.283 50.0927 153.283 49.766V46H155.201V53H153.493L153.423 51.782C153.189 52.2487 152.867 52.594 152.457 52.818C152.055 53.0327 151.57 53.14 151.001 53.14ZM157.219 53V46H158.885L159.011 47.372C159.198 46.8867 159.468 46.5133 159.823 46.252C160.187 45.9907 160.64 45.86 161.181 45.86C161.34 45.86 161.484 45.874 161.615 45.902C161.746 45.93 161.853 45.9673 161.937 46.014L161.713 47.624C161.62 47.5867 161.503 47.5587 161.363 47.54C161.232 47.5213 161.06 47.512 160.845 47.512C160.565 47.512 160.294 47.582 160.033 47.722C159.772 47.8527 159.557 48.058 159.389 48.338C159.221 48.6087 159.137 48.954 159.137 49.374V53H157.219ZM163.125 53V46H164.791L164.917 47.372C165.104 46.8867 165.375 46.5133 165.729 46.252C166.093 45.9907 166.546 45.86 167.087 45.86C167.246 45.86 167.391 45.874 167.521 45.902C167.652 45.93 167.759 45.9673 167.843 46.014L167.619 47.624C167.526 47.5867 167.409 47.5587 167.269 47.54C167.139 47.5213 166.966 47.512 166.751 47.512C166.471 47.512 166.201 47.582 165.939 47.722C165.678 47.8527 165.463 48.058 165.295 48.338C165.127 48.6087 165.043 48.954 165.043 49.374V53H163.125ZM172.143 53.14C171.405 53.14 170.761 52.9953 170.211 52.706C169.669 52.4167 169.249 52.0013 168.951 51.46C168.652 50.9187 168.503 50.2653 168.503 49.5C168.503 48.7347 168.652 48.0813 168.951 47.54C169.249 46.9987 169.665 46.5833 170.197 46.294C170.738 46.0047 171.354 45.86 172.045 45.86C172.754 45.86 173.356 46.0047 173.851 46.294C174.345 46.574 174.723 46.9613 174.985 47.456C175.246 47.9413 175.377 48.4967 175.377 49.122C175.377 49.3087 175.372 49.486 175.363 49.654C175.353 49.822 175.339 49.9713 175.321 50.102H169.735V48.772H174.481L173.557 49.108C173.557 48.52 173.421 48.0673 173.151 47.75C172.889 47.4327 172.516 47.274 172.031 47.274C171.676 47.274 171.368 47.358 171.107 47.526C170.855 47.694 170.663 47.946 170.533 48.282C170.402 48.6087 170.337 49.024 170.337 49.528C170.337 50.0227 170.407 50.4333 170.547 50.76C170.696 51.0773 170.901 51.3153 171.163 51.474C171.433 51.6327 171.755 51.712 172.129 51.712C172.539 51.712 172.871 51.6327 173.123 51.474C173.375 51.3153 173.571 51.096 173.711 50.816L175.237 51.404C175.087 51.768 174.859 52.0807 174.551 52.342C174.252 52.6033 173.893 52.804 173.473 52.944C173.062 53.0747 172.619 53.14 172.143 53.14ZM177.002 53V46H178.724L178.836 48.1L178.598 47.876C178.71 47.4187 178.887 47.0407 179.13 46.742C179.373 46.4433 179.667 46.224 180.012 46.084C180.367 45.9347 180.754 45.86 181.174 45.86C181.659 45.86 182.089 45.9533 182.462 46.14C182.845 46.3267 183.143 46.6113 183.358 46.994C183.582 47.3673 183.694 47.8387 183.694 48.408V53H181.776V48.954C181.776 48.3567 181.659 47.946 181.426 47.722C181.193 47.4887 180.889 47.372 180.516 47.372C180.255 47.372 179.998 47.4373 179.746 47.568C179.503 47.6893 179.303 47.89 179.144 48.17C178.995 48.45 178.92 48.8233 178.92 49.29V53H177.002ZM188.093 43.858V50.718C188.093 51.054 188.177 51.3013 188.345 51.46C188.523 51.6093 188.761 51.684 189.059 51.684C189.293 51.684 189.498 51.6513 189.675 51.586C189.853 51.5113 190.011 51.4133 190.151 51.292L190.459 52.566C190.235 52.7433 189.955 52.8833 189.619 52.986C189.283 53.0887 188.929 53.14 188.555 53.14C188.089 53.14 187.673 53.07 187.309 52.93C186.955 52.79 186.675 52.566 186.469 52.258C186.273 51.95 186.175 51.5393 186.175 51.026V44.39L188.093 43.858ZM190.333 46V47.428H184.887V46H190.333ZM203.127 43.76V45.314H200.033V53H198.101V45.314H194.993V43.76H203.127ZM207.201 48.534C207.201 48.1327 207.084 47.82 206.851 47.596C206.627 47.372 206.328 47.26 205.955 47.26C205.61 47.26 205.306 47.3487 205.045 47.526C204.784 47.7033 204.592 47.9973 204.471 48.408L202.833 47.904C202.992 47.288 203.337 46.7933 203.869 46.42C204.41 46.0467 205.134 45.86 206.039 45.86C206.655 45.86 207.192 45.958 207.649 46.154C208.106 46.3407 208.461 46.6253 208.713 47.008C208.974 47.3907 209.105 47.8713 209.105 48.45V51.292C209.105 51.6467 209.273 51.824 209.609 51.824C209.768 51.824 209.917 51.8007 210.057 51.754L209.945 52.944C209.702 53.0653 209.399 53.126 209.035 53.126C208.708 53.126 208.414 53.07 208.153 52.958C207.892 52.846 207.686 52.678 207.537 52.454C207.388 52.2207 207.313 51.9313 207.313 51.586V51.53L207.649 51.474C207.593 51.8287 207.439 52.132 207.187 52.384C206.935 52.6267 206.627 52.8133 206.263 52.944C205.908 53.0747 205.54 53.14 205.157 53.14C204.681 53.14 204.27 53.07 203.925 52.93C203.58 52.7807 203.314 52.566 203.127 52.286C202.94 52.006 202.847 51.6607 202.847 51.25C202.847 50.7273 203.015 50.3027 203.351 49.976C203.687 49.64 204.168 49.4113 204.793 49.29L207.425 48.758L207.411 49.948L205.731 50.284C205.414 50.3493 205.171 50.438 205.003 50.55C204.844 50.6527 204.765 50.8253 204.765 51.068C204.765 51.3013 204.849 51.4787 205.017 51.6C205.194 51.7213 205.404 51.782 205.647 51.782C205.843 51.782 206.034 51.7587 206.221 51.712C206.408 51.6653 206.576 51.5907 206.725 51.488C206.874 51.3853 206.991 51.2453 207.075 51.068C207.159 50.8907 207.201 50.676 207.201 50.424V48.534ZM215.366 53.14C214.937 53.14 214.545 53.0513 214.19 52.874C213.845 52.6873 213.556 52.4353 213.322 52.118C213.098 51.7913 212.944 51.4273 212.86 51.026L213.056 50.774L212.944 53H211.25V42.934H213.168V47.974L212.986 47.68C213.136 47.1573 213.42 46.7233 213.84 46.378C214.26 46.0327 214.788 45.86 215.422 45.86C215.973 45.86 216.472 46.0047 216.92 46.294C217.368 46.5833 217.718 46.9987 217.97 47.54C218.232 48.0813 218.362 48.7393 218.362 49.514C218.362 50.27 218.232 50.9187 217.97 51.46C217.718 52.0013 217.364 52.4167 216.906 52.706C216.458 52.9953 215.945 53.14 215.366 53.14ZM214.792 51.67C215.306 51.67 215.707 51.488 215.996 51.124C216.295 50.7507 216.444 50.2093 216.444 49.5C216.444 48.7907 216.3 48.254 216.01 47.89C215.721 47.5167 215.32 47.33 214.806 47.33C214.47 47.33 214.181 47.4187 213.938 47.596C213.696 47.7733 213.504 48.0253 213.364 48.352C213.234 48.6787 213.168 49.066 213.168 49.514C213.168 49.9713 213.234 50.3633 213.364 50.69C213.504 51.0073 213.696 51.25 213.938 51.418C214.19 51.586 214.475 51.67 214.792 51.67Z" fill="#120B48"/>
</svg>
