<svg width="40" height="40" viewBox="0 0 40 40" fill="none" xmlns="http://www.w3.org/2000/svg">
<g clip-path="url(#clip0_160_3902)">
<path d="M31.1404 16.8422C30.5807 14.9123 29.5624 13.1465 28.1724 11.6954C26.7824 10.2443 25.0619 9.15104 23.1579 8.50888C21.2768 7.96133 19.2996 7.82678 17.3616 8.11444C15.4237 8.40211 13.5708 9.10519 11.9298 10.1755C11.7948 10.3109 11.6255 10.4068 11.44 10.4532C11.2546 10.4996 11.06 10.4945 10.8772 10.4387C10.5086 10.3193 10.1766 10.108 9.9123 9.82467C9.71992 9.47756 9.65771 9.0732 9.73686 8.68432C9.78712 8.49766 9.87539 8.3234 9.99615 8.17245C10.1169 8.0215 10.2675 7.89713 10.4386 7.80712C15.0877 5.08782 19.6491 4.38607 24.0351 5.78958C26.1944 6.5078 28.1658 7.69977 29.805 9.27823C31.4441 10.8567 32.7096 12.7817 33.5088 14.9124H39.386C38.1842 10.172 35.2873 6.03622 31.2429 3.28695C27.1986 0.537687 22.2871 -0.634505 17.437 -0.00799665C12.587 0.618511 8.13459 3.0003 4.9216 6.68704C1.70861 10.3738 -0.0422628 15.11 1.57469e-05 20.0001C1.57469e-05 20.7896 0.087735 21.4913 0.087735 22.2808H7.54388C7.82864 22.2647 8.11093 22.3415 8.34825 22.4997C8.58557 22.6579 8.76505 22.8889 8.85966 23.158C9.43259 25.0812 10.4555 26.8403 11.8437 28.2895C13.2318 29.7387 14.9453 30.8363 16.8421 31.4913C18.7232 32.0389 20.7005 32.1734 22.6384 31.8858C24.5763 31.5981 26.4292 30.895 28.0702 29.8247C28.2052 29.6894 28.3745 29.5934 28.56 29.547C28.7454 29.5006 28.94 29.5057 29.1228 29.5615C29.4914 29.6809 29.8235 29.8922 30.0877 30.1755C30.2801 30.5227 30.3423 30.927 30.2632 31.3159C30.2129 31.5026 30.1246 31.6768 30.0039 31.8278C29.8831 31.9787 29.7325 32.1031 29.5614 32.1931C26.9172 33.9723 23.8011 34.9193 20.6141 34.9124C19.0389 34.9005 17.4734 34.6642 15.9649 34.2106C13.7966 33.5096 11.8164 32.3236 10.1749 30.7429C8.5334 29.1622 7.27362 27.2282 6.49124 25.0878H0.70177C1.96989 29.7502 4.88302 33.796 8.90267 36.4771C12.9223 39.1583 17.7767 40.2936 22.5685 39.6732C27.3603 39.0529 31.7655 36.7188 34.9699 33.1023C38.1742 29.4859 39.961 24.8317 40 20.0001C40.0163 19.268 39.987 18.5356 39.9123 17.8071H32.5439C32.2448 17.7874 31.9566 17.6873 31.7096 17.5175C31.4626 17.3477 31.2659 17.1144 31.1404 16.8422Z" fill="white"/>
<path d="M20.0844 28.7496C21.8113 28.733 23.4947 28.2057 24.9225 27.2342C26.3503 26.2627 27.4587 24.8904 28.1081 23.2902C28.7575 21.6899 28.9188 19.9333 28.5717 18.2416C28.2247 16.5498 27.3847 14.9986 26.1578 13.7833C24.9308 12.568 23.3716 11.7429 21.6766 11.4121C19.9816 11.0812 18.2266 11.2593 16.6326 11.924C15.0387 12.5887 13.677 13.7102 12.7192 15.1472C11.7614 16.5843 11.2503 18.2726 11.2502 19.9996C11.2502 21.1558 11.4793 22.3005 11.9243 23.3676C12.3692 24.4347 13.0213 25.4031 13.8427 26.2167C14.6642 27.0303 15.6387 27.6731 16.7101 28.1078C17.7814 28.5426 18.9283 28.7607 20.0844 28.7496Z" fill="#120B48"/>
</g>
<defs>
<clipPath id="clip0_160_3902">
<rect width="40" height="40" fill="white"/>
</clipPath>
</defs>
</svg>
