<svg width="40" height="40" viewBox="0 0 40 40" fill="none" xmlns="http://www.w3.org/2000/svg">
<g clip-path="url(#clip0_160_3424)">
<path d="M31.1404 16.8421C30.5807 14.9122 29.5624 13.1464 28.1724 11.6953C26.7824 10.2442 25.0619 9.15092 23.1579 8.50876C21.2768 7.96121 19.2996 7.82666 17.3616 8.11432C15.4237 8.40199 13.5708 9.10507 11.9298 10.1754C11.7948 10.3107 11.6255 10.4067 11.44 10.4531C11.2546 10.4994 11.06 10.4944 10.8772 10.4386C10.5086 10.3192 10.1766 10.1079 9.9123 9.82455C9.71992 9.47744 9.65771 9.07308 9.73686 8.68419C9.78712 8.49754 9.87539 8.32327 9.99615 8.17233C10.1169 8.02138 10.2675 7.89701 10.4386 7.807C15.0877 5.0877 19.6491 4.38595 24.0351 5.78946C26.1944 6.50768 28.1658 7.69964 29.805 9.27811C31.4441 10.8566 32.7096 12.7816 33.5088 14.9123H39.386C38.1842 10.1719 35.2873 6.0361 31.2429 3.28683C27.1986 0.537565 22.2871 -0.634627 17.437 -0.00811872C12.587 0.618389 8.13459 3.00017 4.9216 6.68692C1.70861 10.3737 -0.0422628 15.1098 1.57469e-05 20C1.57469e-05 20.7895 0.087735 21.4912 0.087735 22.2807H7.54388C7.82864 22.2645 8.11093 22.3413 8.34825 22.4996C8.58557 22.6578 8.76505 22.8888 8.85966 23.1579C9.43259 25.0811 10.4555 26.8402 11.8437 28.2894C13.2318 29.7385 14.9453 30.8361 16.8421 31.4912C18.7232 32.0388 20.7005 32.1733 22.6384 31.8856C24.5763 31.598 26.4292 30.8949 28.0702 29.8245C28.2052 29.6892 28.3745 29.5933 28.56 29.5469C28.7454 29.5005 28.94 29.5055 29.1228 29.5614C29.4914 29.6808 29.8235 29.8921 30.0877 30.1754C30.2801 30.5225 30.3423 30.9269 30.2632 31.3158C30.2129 31.5024 30.1246 31.6767 30.0039 31.8276C29.8831 31.9786 29.7325 32.103 29.5614 32.193C26.9172 33.9722 23.8011 34.9192 20.6141 34.9123C19.0389 34.9004 17.4734 34.6641 15.9649 34.2105C13.7966 33.5094 11.8164 32.3235 10.1749 30.7428C8.5334 29.162 7.27362 27.2281 6.49124 25.0877H0.70177C1.96989 29.7501 4.88302 33.7958 8.90267 36.477C12.9223 39.1582 17.7767 40.2935 22.5685 39.6731C27.3603 39.0527 31.7655 36.7186 34.9699 33.1022C38.1742 29.4858 39.961 24.8316 40 20C40.0163 19.2679 39.987 18.5355 39.9123 17.807H32.5439C32.2448 17.7872 31.9566 17.6872 31.7096 17.5174C31.4626 17.3476 31.2659 17.1143 31.1404 16.8421Z" fill="#100A42"/>
<path d="M20.0844 28.7495C21.8113 28.7329 23.4947 28.2056 24.9225 27.2341C26.3503 26.2626 27.4587 24.8903 28.1081 23.2901C28.7575 21.6898 28.9188 19.9332 28.5717 18.2414C28.2247 16.5497 27.3847 14.9985 26.1578 13.7832C24.9308 12.5679 23.3716 11.7428 21.6766 11.412C19.9816 11.0811 18.2266 11.2592 16.6326 11.9239C15.0387 12.5886 13.677 13.71 12.7192 15.1471C11.7614 16.5841 11.2503 18.2725 11.2502 19.9995C11.2502 21.1557 11.4793 22.3004 11.9243 23.3675C12.3692 24.4346 13.0213 25.403 13.8427 26.2166C14.6642 27.0302 15.6387 27.673 16.7101 28.1077C17.7814 28.5425 18.9283 28.7606 20.0844 28.7495Z" fill="white"/>
</g>
<defs>
<clipPath id="clip0_160_3424">
<rect width="40" height="40" fill="white"/>
</clipPath>
</defs>
</svg>
